<mxfile host="app.diagrams.net" agent="Mozilla/5.0 (X11; Ubuntu; Linux x86_64; rv:132.0) Gecko/20100101 Firefox/132.0" version="24.8.6">
  <diagram name="Page-1" id="PO_eUmykWI1Ow0HYUzqq">
    <mxGraphModel dx="1195" dy="654" grid="1" gridSize="10" guides="1" tooltips="1" connect="1" arrows="1" fold="1" page="1" pageScale="1" pageWidth="850" pageHeight="1100" math="0" shadow="0">
      <root>
        <mxCell id="0" />
        <mxCell id="1" parent="0" />
        <mxCell id="Q3LRiBKIXCyOP2B5dgdC-4" value="" style="edgeStyle=orthogonalEdgeStyle;rounded=0;orthogonalLoop=1;jettySize=auto;html=1;" edge="1" parent="1" source="Q3LRiBKIXCyOP2B5dgdC-1" target="Q3LRiBKIXCyOP2B5dgdC-3">
          <mxGeometry relative="1" as="geometry" />
        </mxCell>
        <mxCell id="Q3LRiBKIXCyOP2B5dgdC-1" value="m" style="rounded=0;whiteSpace=wrap;html=1;fillColor=#ffe6cc;strokeColor=#d79b00;" vertex="1" parent="1">
          <mxGeometry x="120" y="280" width="80" height="160" as="geometry" />
        </mxCell>
        <mxCell id="Q3LRiBKIXCyOP2B5dgdC-7" value="" style="edgeStyle=orthogonalEdgeStyle;rounded=0;orthogonalLoop=1;jettySize=auto;html=1;" edge="1" parent="1" source="Q3LRiBKIXCyOP2B5dgdC-2" target="Q3LRiBKIXCyOP2B5dgdC-6">
          <mxGeometry relative="1" as="geometry" />
        </mxCell>
        <mxCell id="Q3LRiBKIXCyOP2B5dgdC-2" value="E(k_1, .)" style="rounded=0;whiteSpace=wrap;html=1;fillColor=#f8cecc;strokeColor=#b85450;" vertex="1" parent="1">
          <mxGeometry x="360" y="330" width="120" height="60" as="geometry" />
        </mxCell>
        <mxCell id="Q3LRiBKIXCyOP2B5dgdC-5" value="" style="edgeStyle=orthogonalEdgeStyle;rounded=0;orthogonalLoop=1;jettySize=auto;html=1;" edge="1" parent="1" source="Q3LRiBKIXCyOP2B5dgdC-3" target="Q3LRiBKIXCyOP2B5dgdC-2">
          <mxGeometry relative="1" as="geometry" />
        </mxCell>
        <mxCell id="Q3LRiBKIXCyOP2B5dgdC-3" value="" style="shape=orEllipse;perimeter=ellipsePerimeter;whiteSpace=wrap;html=1;backgroundOutline=1;" vertex="1" parent="1">
          <mxGeometry x="260" y="340" width="40" height="40" as="geometry" />
        </mxCell>
        <mxCell id="Q3LRiBKIXCyOP2B5dgdC-9" value="" style="edgeStyle=orthogonalEdgeStyle;rounded=0;orthogonalLoop=1;jettySize=auto;html=1;" edge="1" parent="1" source="Q3LRiBKIXCyOP2B5dgdC-6" target="Q3LRiBKIXCyOP2B5dgdC-8">
          <mxGeometry relative="1" as="geometry" />
        </mxCell>
        <mxCell id="Q3LRiBKIXCyOP2B5dgdC-6" value="" style="shape=orEllipse;perimeter=ellipsePerimeter;whiteSpace=wrap;html=1;backgroundOutline=1;" vertex="1" parent="1">
          <mxGeometry x="540" y="340" width="40" height="40" as="geometry" />
        </mxCell>
        <mxCell id="Q3LRiBKIXCyOP2B5dgdC-8" value="c" style="rounded=0;whiteSpace=wrap;html=1;fillColor=#e1d5e7;strokeColor=#9673a6;" vertex="1" parent="1">
          <mxGeometry x="640" y="280" width="80" height="160" as="geometry" />
        </mxCell>
        <mxCell id="Q3LRiBKIXCyOP2B5dgdC-13" value="" style="edgeStyle=orthogonalEdgeStyle;rounded=0;orthogonalLoop=1;jettySize=auto;html=1;dashed=1;" edge="1" parent="1" source="Q3LRiBKIXCyOP2B5dgdC-10" target="Q3LRiBKIXCyOP2B5dgdC-12">
          <mxGeometry relative="1" as="geometry" />
        </mxCell>
        <mxCell id="Q3LRiBKIXCyOP2B5dgdC-10" value="E(k_2, t)" style="rounded=0;whiteSpace=wrap;html=1;dashed=1;fillColor=#dae8fc;strokeColor=#6c8ebf;" vertex="1" parent="1">
          <mxGeometry x="350" y="90" width="120" height="60" as="geometry" />
        </mxCell>
        <mxCell id="Q3LRiBKIXCyOP2B5dgdC-12" value="N" style="text;html=1;align=center;verticalAlign=middle;whiteSpace=wrap;rounded=0;" vertex="1" parent="1">
          <mxGeometry x="380" y="180" width="60" height="30" as="geometry" />
        </mxCell>
        <mxCell id="Q3LRiBKIXCyOP2B5dgdC-15" value="" style="edgeStyle=orthogonalEdgeStyle;rounded=0;orthogonalLoop=1;jettySize=auto;html=1;" edge="1" parent="1" source="Q3LRiBKIXCyOP2B5dgdC-14" target="Q3LRiBKIXCyOP2B5dgdC-3">
          <mxGeometry relative="1" as="geometry" />
        </mxCell>
        <mxCell id="Q3LRiBKIXCyOP2B5dgdC-14" value="P(N, i)" style="text;html=1;align=center;verticalAlign=middle;whiteSpace=wrap;rounded=0;" vertex="1" parent="1">
          <mxGeometry x="250" y="270" width="60" height="30" as="geometry" />
        </mxCell>
        <mxCell id="Q3LRiBKIXCyOP2B5dgdC-17" value="" style="edgeStyle=orthogonalEdgeStyle;rounded=0;orthogonalLoop=1;jettySize=auto;html=1;" edge="1" parent="1" source="Q3LRiBKIXCyOP2B5dgdC-16" target="Q3LRiBKIXCyOP2B5dgdC-6">
          <mxGeometry relative="1" as="geometry" />
        </mxCell>
        <mxCell id="Q3LRiBKIXCyOP2B5dgdC-16" value="P(N, i)" style="text;html=1;align=center;verticalAlign=middle;whiteSpace=wrap;rounded=0;" vertex="1" parent="1">
          <mxGeometry x="530" y="270" width="60" height="30" as="geometry" />
        </mxCell>
        <mxCell id="Q3LRiBKIXCyOP2B5dgdC-18" value="" style="endArrow=classic;html=1;rounded=0;entryX=0.5;entryY=0;entryDx=0;entryDy=0;exitX=0.5;exitY=1;exitDx=0;exitDy=0;dashed=1;" edge="1" parent="1" source="Q3LRiBKIXCyOP2B5dgdC-12" target="Q3LRiBKIXCyOP2B5dgdC-14">
          <mxGeometry width="50" height="50" relative="1" as="geometry">
            <mxPoint x="400" y="310" as="sourcePoint" />
            <mxPoint x="450" y="260" as="targetPoint" />
          </mxGeometry>
        </mxCell>
        <mxCell id="Q3LRiBKIXCyOP2B5dgdC-19" value="" style="endArrow=classic;html=1;rounded=0;entryX=0.5;entryY=0;entryDx=0;entryDy=0;exitX=0.5;exitY=1;exitDx=0;exitDy=0;dashed=1;" edge="1" parent="1" source="Q3LRiBKIXCyOP2B5dgdC-12" target="Q3LRiBKIXCyOP2B5dgdC-16">
          <mxGeometry width="50" height="50" relative="1" as="geometry">
            <mxPoint x="400" y="310" as="sourcePoint" />
            <mxPoint x="450" y="260" as="targetPoint" />
          </mxGeometry>
        </mxCell>
        <mxCell id="Q3LRiBKIXCyOP2B5dgdC-20" value="t: tweak&lt;br&gt;i: index" style="text;html=1;align=center;verticalAlign=middle;whiteSpace=wrap;rounded=0;" vertex="1" parent="1">
          <mxGeometry x="610" y="100" width="60" height="30" as="geometry" />
        </mxCell>
      </root>
    </mxGraphModel>
  </diagram>
</mxfile>
